<svg width="248" height="66" viewBox="0 0 248 66" fill="none" xmlns="http://www.w3.org/2000/svg">
<g clip-path="url(#clip0_118_1605)">
<path d="M94.8606 19V0H100.663V19C100.663 22 102.177 24 105.961 24C109.493 24 111.259 22 111.259 19V0H117.062V19C117.062 25 113.278 28.5 106.214 28.5C98.8972 28.5 94.8606 25 94.8606 19Z" fill="white"/>
<path d="M126.144 0H120.846V28H126.144V0Z" fill="white"/>
<path d="M128.667 8H131.443V1.75H136.741V8H140.273V11.5H136.741V22.25C136.741 23.75 137.497 24.25 138.759 24.25C139.516 24.25 140.273 24.25 140.273 24.25V28.25C140.273 28.25 139.011 28.25 136.993 28.25C134.47 28.25 131.443 27.25 131.443 23.5V11.5H128.667V8Z" fill="white"/>
<path d="M142.796 0H148.094V4.75H142.796V0ZM142.796 8H148.094V28H142.796V8Z" fill="white"/>
<path d="M151.878 8H157.176V10.75C158.185 9 160.203 7.5 162.979 7.5C165.502 7.5 167.52 9 168.529 11C169.79 8.75 172.061 7.5 174.584 7.5C178.873 7.5 181.143 10.25 181.143 14.75V28.25H175.845V15.75C175.845 13.5 174.584 12.25 172.818 12.25C170.547 12.25 169.286 14 169.286 16.75V28.5H163.988V16C163.988 13.75 162.726 12.5 160.96 12.5C158.69 12.5 157.428 14.25 157.428 17V28.75H152.13V8H151.878Z" fill="white"/>
<path d="M197.038 25.75C196.028 27.25 194.515 28.5 190.983 28.5C186.946 28.5 183.919 26.25 183.919 22.25C183.919 17.75 187.451 16.5 191.992 15.75C195.272 15.5 196.785 15.25 196.785 13.5C196.785 12 195.524 11 193.506 11C190.983 11 189.721 12 189.469 13.75H184.675C184.928 10.5 187.451 7.5 193.506 7.5C199.561 7.5 202.083 10.25 202.083 15V25C202.083 26.5 202.336 27.5 202.84 27.75V28H197.542C197.29 27.75 197.038 26.75 197.038 25.75ZM197.038 21V18C196.028 18.5 194.515 18.75 193.253 19.25C190.478 20 188.964 20.5 188.964 22.5C188.964 24.5 190.226 25 192.244 25C195.272 24.75 197.038 23 197.038 21Z" fill="white"/>
<path d="M203.849 8H206.625V1.75H211.923V8H215.455V11.5H211.923V22.25C211.923 23.75 212.68 24.25 213.941 24.25C214.698 24.25 215.455 24.25 215.455 24.25V28.25C215.455 28.25 214.193 28.25 212.175 28.25C209.652 28.25 206.625 27.25 206.625 23.5V11.5H203.849V8Z" fill="white"/>
<path d="M216.968 18C216.968 12 221.005 7.5 227.06 7.5C233.62 7.5 237.152 12.5 237.152 19.5H222.519C223.023 22.5 224.537 24.5 227.817 24.5C229.835 24.5 231.097 23.5 231.854 22H237.152C236.395 25.5 233.115 28.5 228.069 28.5C220.753 28.5 216.968 24 216.968 18ZM222.267 15.75H231.349C231.097 13.25 229.583 11.5 227.06 11.5C224.285 11.5 222.771 13.25 222.267 15.75Z" fill="white"/>
<path d="M95.3652 33.75H118.323V39.25H101.925V46.75H115.801V52.25H101.925V65.25H95.3652V33.75Z" fill="white"/>
<path d="M121.351 33.75H127.406V39H121.351V33.75ZM121.351 42.75H127.406V65.25H121.351V42.75Z" fill="white"/>
<path d="M137.245 45.75C139.011 43.25 141.029 42 144.057 42C148.85 42 151.878 45.5 151.878 50.5V65.25H145.823V51.5C145.823 49 144.309 47.25 141.786 47.25C139.011 47.25 137.245 49.25 137.245 52.5V65.25H131.19V42.75H136.993V45.75H137.245Z" fill="white"/>
<path d="M169.286 62.75C168.024 64.5 166.511 65.75 162.474 65.75C157.933 65.75 154.401 63.25 154.401 58.75C154.401 53.75 158.437 52.25 163.483 51.5C167.268 51 169.034 50.75 169.034 49C169.034 47.25 167.772 46.25 165.249 46.25C162.474 46.25 160.96 47.25 160.96 49.5H155.662C155.915 45.5 158.942 42 165.502 42C172.313 42 175.088 45 175.088 50.25V61.75C175.088 63.5 175.341 64.5 175.845 65V65.25H170.043C169.79 64.75 169.538 63.75 169.286 62.75ZM169.286 57.25V53.75C168.277 54.25 166.511 54.75 164.997 55C161.717 55.75 160.203 56.5 160.203 58.5C160.203 60.5 161.717 61.25 163.735 61.25C167.52 61.5 169.286 59.5 169.286 57.25Z" fill="white"/>
<path d="M184.675 45.75C186.441 43.25 188.46 42 191.487 42C196.281 42 199.308 45.5 199.308 50.5V65.25H193.253V51.5C193.253 49 191.74 47.25 189.217 47.25C186.441 47.25 184.675 49.25 184.675 52.5V65.25H178.621V42.75H184.423V45.75H184.675Z" fill="white"/>
<path d="M202.083 54C202.083 47.25 206.625 42 213.436 42C219.239 42 223.023 45.5 223.78 50.25H217.978C217.473 48.25 215.959 46.75 213.689 46.75C210.157 46.75 208.138 49.5 208.138 54C208.138 58.25 209.904 61.25 213.436 61.25C215.959 61.25 217.725 60 217.978 57.5H223.78C223.276 62.25 219.491 66.25 213.436 66.25C206.625 66 202.083 60.75 202.083 54Z" fill="white"/>
<path d="M225.546 54C225.546 47.25 230.087 42 236.899 42C244.216 42 248.252 47.5 248.252 55.5H231.854C232.358 59 234.376 61.25 237.656 61.25C239.927 61.25 241.44 60.25 241.945 58.5H248C247.243 62.5 243.459 66 237.656 66C229.835 66 225.546 60.75 225.546 54ZM231.601 51.5H241.693C241.441 48.75 239.674 46.75 236.899 46.75C233.62 46.75 232.106 48.5 231.601 51.5Z" fill="white"/>
<path d="M54.4944 25.75V41.25C54.4944 42.75 53.233 44 51.7192 44H23.4629V65.25C26.7426 65.25 29.7701 65.5 33.0499 65.25C34.3113 65.25 36.3296 64.75 38.6002 63.75C42.1323 62.25 44.4029 60.25 45.412 59.25C50.4578 54.5 54.7467 48.75 58.0265 46.25H59.5402H75.1821V25.75H54.4944Z" fill="white"/>
<path d="M20.6877 39.4998V24.2498C20.6877 22.7498 21.9491 21.4998 23.4629 21.4998H51.4669V-0.000217013C48.1872 -0.000217013 45.1597 -0.250217 41.88 -0.000217013C40.6185 -0.000217013 38.6002 0.499783 36.3296 1.49978C32.7976 2.99978 30.527 4.99978 29.5178 5.99978C24.472 10.7498 20.1831 16.4998 16.9034 18.9998H15.6419H0V39.4998H20.6877Z" fill="white"/>
</g>
<defs>
<clipPath id="clip0_118_1605">
<rect width="248" height="66" fill="white"/>
</clipPath>
</defs>
</svg>
